HIERARCHY
ROOT Hips
{
	OFFSET 0.000000 0.000000 0.000000
	CHANNELS 6 Xposition Yposition Zposition Xrotation Yrotation Zrotation
	JOINT LeftUpLeg_virtual
	{
		OFFSET 0.000000 0.000000 0.000000
		CHANNELS 3 Xrotation Yrotation Zrotation
		JOINT LeftUpLeg
		{
			OFFSET 10.205400 -3.823500 0.155100
			CHANNELS 3 Xrotation Yrotation Zrotation
			JOINT LeftLeg
			{
				OFFSET 0.708757 -12.982077 0.567790
				CHANNELS 3 Xrotation Yrotation Zrotation
				JOINT LeftFoot
				{
					OFFSET -0.708756 -10.717838 -2.184338
					CHANNELS 3 Xrotation Yrotation Zrotation
					JOINT LeftToeBase
					{
						OFFSET 0.108149 -7.191104 7.560241
						CHANNELS 3 Xrotation Yrotation Zrotation
						JOINT LeftToe_End
						{
							OFFSET 0.070230 0.081724 4.490308
							CHANNELS 3 Xrotation Yrotation Zrotation
							End Site
							{
								OFFSET 0 0 0
							}
						}
					}
				}
			}
		}
	}
	JOINT RightUpLeg_virtual
	{
		OFFSET 0.000000 0.000000 0.000000
		CHANNELS 3 Xrotation Yrotation Zrotation
		JOINT RightUpLeg
		{
			OFFSET -10.205400 -3.823500 0.005500
			CHANNELS 3 Xrotation Yrotation Zrotation
			JOINT RightLeg
			{
				OFFSET -0.708756 -12.982134 0.610632
				CHANNELS 3 Xrotation Yrotation Zrotation
				JOINT RightFoot
				{
					OFFSET 0.708754 -10.717769 -1.945823
					CHANNELS 3 Xrotation Yrotation Zrotation
					JOINT RightToeBase
					{
						OFFSET -0.108140 -7.191069 7.372968
						CHANNELS 3 Xrotation Yrotation Zrotation
						JOINT RightToe_End
						{
							OFFSET -0.070227 0.081735 4.479403
							CHANNELS 3 Xrotation Yrotation Zrotation
							End Site
							{
								OFFSET 0 0 0
							}
						}
					}
				}
			}
		}
	}
	JOINT Spine_virtual
	{
		OFFSET 0.000000 0.000000 0.000000
		CHANNELS 3 Xrotation Yrotation Zrotation
		JOINT Spine
		{
			OFFSET 0.000000 6.876099 0.125700
			CHANNELS 3 Xrotation Yrotation Zrotation
			JOINT Spine1
			{
				OFFSET 0.000000 5.730043 0.104720
				CHANNELS 3 Xrotation Yrotation Zrotation
				JOINT Spine1_split
				{
					OFFSET 0.000000 5.730043 0.104720
					CHANNELS 3 Xrotation Yrotation Zrotation
					JOINT Spine2
					{
						OFFSET 0.000000 5.730043 0.104720
						CHANNELS 3 Xrotation Yrotation Zrotation
						JOINT Neck_virtual
						{
							OFFSET 0.000000 0.000000 0.000000
							CHANNELS 3 Xrotation Yrotation Zrotation
							JOINT Neck
							{
								OFFSET 0.000000 10.314075 0.188496
								CHANNELS 3 Xrotation Yrotation Zrotation
								JOINT Head
								{
									OFFSET 0.000000 7.643700 -2.377400
									CHANNELS 3 Xrotation Yrotation Zrotation
									JOINT HeadTop_End
									{
										OFFSET 0.000000 43.788605 -13.619600
										CHANNELS 3 Xrotation Yrotation Zrotation
										End Site
										{
											OFFSET 0 0 0
										}
									}
								}
							}
						}
						JOINT LeftShoulder_virtual
						{
							OFFSET 0.000000 0.000000 0.000000
							CHANNELS 3 Xrotation Yrotation Zrotation
							JOINT LeftShoulder
							{
								OFFSET 2.196100 4.412489 0.087492
								CHANNELS 3 Xrotation Yrotation Zrotation
								JOINT LeftShoulder_split
								{
									OFFSET 2.196100 4.412489 0.087492
									CHANNELS 3 Xrotation Yrotation Zrotation
									JOINT LeftArm
									{
										OFFSET 8.771219 -2.981674 -0.026999
										CHANNELS 3 Xrotation Yrotation Zrotation
										JOINT LeftForeArm
										{
											OFFSET 8.512804 0.000000 -0.000000
											CHANNELS 3 Xrotation Yrotation Zrotation
											JOINT LeftHand
											{
												OFFSET 18.484802 0.000000 -0.000000
												CHANNELS 3 Xrotation Yrotation Zrotation
												End Site
												{
													OFFSET 0 0 0
												}
											}
										}
									}
								}
							}
						}
						JOINT RightShoulder_virtual
						{
							OFFSET 0.000000 0.000000 0.000000
							CHANNELS 3 Xrotation Yrotation Zrotation
							JOINT RightShoulder
							{
								OFFSET -2.196100 4.412496 0.070690
								CHANNELS 3 Xrotation Yrotation Zrotation
								JOINT RightShoulder_split
								{
									OFFSET -2.196100 4.412496 0.070690
									CHANNELS 3 Xrotation Yrotation Zrotation
									JOINT RightArm
									{
										OFFSET -8.771282 -2.981682 -0.094208
										CHANNELS 3 Xrotation Yrotation Zrotation
										JOINT RightForeArm
										{
											OFFSET -8.494598 0.000000 0.000000
											CHANNELS 3 Xrotation Yrotation Zrotation
											JOINT RightHand
											{
												OFFSET -18.483803 0.000000 0.000001
												CHANNELS 3 Xrotation Yrotation Zrotation
												End Site
												{
													OFFSET 0 0 0
												}
											}
										}
									}
								}
							}
						}
					}
				}
			}
		}
	}
}
MOTION
Frames: 7
Frame Time: 0.03333333
-0.446607 23.078215 3.860245 0.000000 0.000000 0.000000 31.882821 -54.799192 28.461216 -76.551244 -9.039028 26.034933 88.779536 -9.975900 -0.807904 -24.996925 3.439405 -18.721087 -2.931429 -0.579240 1.789151 0.000000 0.000000 0.000000 33.443086 -57.647814 31.009967 -67.801908 3.515226 -38.708110 88.671196 11.156335 2.433347 -34.708170 -4.738744 15.346713 3.468308 2.368749 -0.084693 0.000000 0.000000 0.000000 36.014495 -54.394329 30.224680 8.406310 -1.606487 -2.223392 4.106789 -3.028917 -2.732563 1.057100 0.384253 0.651775 0.000000 0.000000 0.000000 3.298031 -3.502590 -2.110435 -3.981426 14.643535 -7.258596 -34.224183 34.907157 4.444031 0.000000 0.000000 0.000000 3.450996 -3.507230 -2.468719 4.788743 -9.343134 -6.291142 -4.054750 -3.086558 0.802220 -59.361406 2.613420 -22.884721 20.233172 -22.499768 16.906615 0.000000 0.000000 0.000000 3.619827 -3.219064 -2.216208 5.904247 7.520612 13.406516 3.638368 4.292543 -0.446139 -9.851320 -2.880322 53.649999 -17.142603 40.759810 8.765406 0.000000 0.000000 0.000000 
-0.241658 22.061913 3.440363 0.000000 0.000000 0.000000 33.209759 -54.015704 29.225673 -81.635145 -12.855767 26.111108 93.810790 -10.731664 -1.134120 -24.263339 3.556916 -20.330854 -3.428211 -0.535998 1.404060 0.000000 0.000000 0.000000 34.984383 -56.767106 31.897062 -73.244032 5.817735 -39.026444 94.012691 12.213425 2.176045 -34.093367 -3.907015 14.832632 3.521453 2.434051 0.042842 0.000000 0.000000 0.000000 37.404677 -53.810269 31.045737 7.837713 -1.554884 -2.009690 4.365011 -2.844097 -2.673622 1.169155 0.177397 0.686201 0.000000 0.000000 0.000000 3.585947 -3.328435 -2.053150 -2.730816 15.310989 -8.382953 -34.656817 33.788635 3.775682 0.000000 0.000000 0.000000 3.691921 -3.334029 -2.466256 5.123763 -9.606502 -6.259581 -3.743257 -3.002185 1.111019 -60.771328 1.282221 -23.057023 21.205661 -22.002751 16.831167 0.000000 0.000000 0.000000 3.880194 -3.013777 -2.145165 6.313430 7.748357 13.653976 3.822207 4.378956 -0.595774 -9.650036 -1.175541 51.878797 -17.844955 42.348962 9.455823 0.000000 0.000000 0.000000 
-0.044117 21.071445 3.014282 0.000000 0.000000 0.000000 34.017221 -53.348610 29.429649 -86.172884 -16.476515 26.238018 98.415185 -11.720904 -1.297262 -23.395792 3.429060 -21.981680 -4.096647 -0.459034 1.052912 0.000000 0.000000 0.000000 36.095842 -56.099151 32.283033 -78.539580 8.018029 -38.952729 99.041752 12.843496 2.342527 -32.896619 -3.457805 13.884375 3.464044 2.351315 0.162077 0.000000 0.000000 0.000000 38.434045 -53.404669 31.512290 7.312308 -1.439702 -1.789933 4.607836 -2.608760 -2.606671 1.157369 -0.059655 0.782023 0.000000 0.000000 0.000000 3.886196 -3.094422 -1.997653 -1.299422 15.939959 -9.487445 -34.568547 32.856782 2.963179 0.000000 0.000000 0.000000 3.953334 -3.108683 -2.459468 5.486482 -9.638082 -6.254540 -3.447554 -2.892626 1.289591 -61.941770 0.161970 -23.430988 22.258080 -21.493231 16.619018 0.000000 0.000000 0.000000 4.142543 -2.765281 -2.086951 6.745730 7.919725 13.926517 4.047055 4.397074 -0.682465 -9.144192 0.343306 49.875681 -18.231949 43.330372 9.998740 0.000000 0.000000 0.000000 
0.144380 20.153519 2.586542 0.000000 0.000000 0.000000 34.408369 -52.759117 29.215031 -90.143054 -19.869522 26.413243 102.487774 -12.894924 -1.261662 -22.300496 3.022126 -23.703991 -4.723257 -0.362779 0.758490 0.000000 0.000000 0.000000 36.809092 -55.689442 32.330065 -83.592650 10.081972 -38.671462 103.788618 13.241500 2.756240 -30.926823 -3.347703 12.845538 2.910199 2.163718 0.228603 0.000000 0.000000 0.000000 39.268147 -53.144602 31.781963 6.822468 -1.268667 -1.588930 4.834236 -2.367364 -2.562970 0.963525 -0.393980 0.889776 0.000000 0.000000 0.000000 4.171042 -2.836527 -1.967302 0.279229 16.556817 -10.543164 -34.129745 32.037894 2.145787 0.000000 0.000000 0.000000 4.222588 -2.867858 -2.466570 5.879346 -9.424300 -6.261229 -3.150240 -2.803534 1.278096 -62.864399 -0.768213 -23.912859 23.411643 -20.937846 16.316695 0.000000 0.000000 0.000000 4.392284 -2.518393 -2.064782 7.196587 8.076021 14.333639 4.344143 4.378123 -0.682194 -8.494022 1.465667 47.787446 -18.240235 43.880926 10.356042 0.000000 0.000000 0.000000 
0.298537 19.337584 2.182945 0.000000 0.000000 0.000000 34.497639 -52.157565 28.718572 -93.560416 -23.019747 26.557804 105.923059 -14.144963 -1.076620 -20.946146 2.348909 -25.340588 -5.132348 -0.279573 0.490100 0.000000 0.000000 0.000000 37.197613 -55.386660 32.145152 -88.249172 12.045188 -38.252956 108.002578 13.605470 3.069537 -28.284840 -3.477495 12.156737 1.694775 1.952706 0.176660 0.000000 0.000000 0.000000 39.928214 -52.964483 31.884122 6.351378 -1.067494 -1.422494 5.050842 -2.156043 -2.549332 0.804107 -0.778246 0.999112 0.000000 0.000000 0.000000 4.426683 -2.598459 -1.965447 1.934160 17.173317 -11.544999 -33.557703 31.269572 1.451241 0.000000 0.000000 0.000000 4.496629 -2.645262 -2.481809 6.311873 -9.015996 -6.282088 -2.837669 -2.789688 1.046680 -63.513697 -1.570652 -24.453826 24.721067 -20.484007 16.051537 0.000000 0.000000 0.000000 4.641479 -2.311953 -2.092635 7.657393 8.279508 14.947336 4.679801 4.377456 -0.654458 -7.866899 2.147529 45.619697 -17.860045 44.203512 10.526003 0.000000 0.000000 0.000000 
0.413401 18.650112 1.793203 0.000000 0.000000 0.000000 34.472258 -51.546208 28.151581 -96.480438 -25.931115 26.571984 108.629309 -15.395588 -0.734097 -19.249978 1.432999 -27.046135 -5.497666 -0.219527 0.312817 0.000000 0.000000 0.000000 37.330857 -55.120094 31.802119 -92.334425 13.864550 -37.699984 111.513609 13.982499 3.096621 -25.433263 -3.700886 11.901978 0.040641 1.784308 0.048427 0.000000 0.000000 0.000000 40.573550 -52.842274 31.961467 5.914477 -0.868369 -1.284043 5.275367 -2.006932 -2.554772 0.700247 -1.095703 1.100309 0.000000 0.000000 0.000000 4.666932 -2.411160 -1.980984 3.598896 17.813314 -12.511503 -33.052211 30.596734 0.940632 0.000000 0.000000 0.000000 4.787375 -2.467615 -2.495947 6.776785 -8.470238 -6.334329 -2.530520 -2.911291 0.715597 -63.966573 -2.248877 -25.018209 26.223622 -20.229946 15.920742 0.000000 0.000000 0.000000 4.911792 -2.168098 -2.151117 8.116549 8.604258 15.782829 4.953577 4.396709 -0.661626 -7.334813 2.515764 43.346566 -17.096921 44.378375 10.482256 0.000000 0.000000 0.000000 
0.492783 18.092926 1.445019 0.000000 0.000000 0.000000 34.342662 -50.881668 27.536205 -98.988422 -28.499822 26.411518 110.553797 -16.605677 -0.290029 -17.196685 0.351132 -28.875909 -6.030331 -0.175754 0.242102 0.000000 0.000000 0.000000 37.192286 -54.696609 31.259983 -95.718626 15.442885 -37.125384 114.295382 14.302864 2.783782 -22.788105 -3.884250 11.812698 -1.601001 1.738954 -0.071335 0.000000 0.000000 0.000000 41.215766 -52.711992 32.017963 5.498353 -0.706902 -1.150460 5.534330 -1.914629 -2.558424 0.726879 -1.307885 1.089094 0.000000 0.000000 0.000000 4.911758 -2.285068 -1.994289 5.168296 18.458906 -13.442334 -32.771985 30.080754 0.648294 0.000000 0.000000 0.000000 5.087298 -2.341668 -2.496042 7.251993 -7.885123 -6.450887 -2.322597 -3.024461 0.348450 -64.391103 -2.879461 -25.601245 27.926748 -20.186581 15.969206 0.000000 0.000000 0.000000 5.205073 -2.083830 -2.205628 8.552636 9.099782 16.788294 5.133695 4.458005 -0.735169 -6.882107 2.729179 40.983631 -15.993959 44.401649 10.195426 0.000000 0.000000 0.000000 
